<svg width="197" height="45" viewBox="0 0 197 45" fill="none" xmlns="http://www.w3.org/2000/svg">
<path d="M20.5979 5.8541C21.1966 4.01148 23.8034 4.01148 24.4021 5.8541L27.1025 14.1652C27.3703 14.9892 28.1382 15.5471 29.0047 15.5471H37.7434C39.6808 15.5471 40.4864 18.0263 38.919 19.1652L31.8492 24.3017C31.1482 24.811 30.8549 25.7137 31.1226 26.5377L33.8231 34.8488C34.4218 36.6914 32.3128 38.2236 30.7454 37.0848L23.6756 31.9483C22.9746 31.439 22.0254 31.439 21.3244 31.9483L14.2546 37.0848C12.6872 38.2236 10.5782 36.6914 11.1769 34.8488L13.8774 26.5377C14.1451 25.7137 13.8518 24.811 13.1508 24.3017L6.08103 19.1652C4.5136 18.0264 5.31915 15.5471 7.25659 15.5471H15.9953C16.8618 15.5471 17.6297 14.9892 17.8975 14.1652L20.5979 5.8541Z" fill="#FF0413"/>
<path d="M58.5979 5.8541C59.1966 4.01148 61.8034 4.01148 62.4021 5.8541L65.1025 14.1652C65.3703 14.9892 66.1382 15.5471 67.0047 15.5471H75.7434C77.6808 15.5471 78.4864 18.0263 76.919 19.1652L69.8492 24.3017C69.1482 24.811 68.8549 25.7137 69.1226 26.5377L71.8231 34.8488C72.4218 36.6914 70.3128 38.2236 68.7454 37.0848L61.6756 31.9483C60.9746 31.439 60.0254 31.439 59.3244 31.9483L52.2546 37.0848C50.6872 38.2236 48.5782 36.6914 49.1769 34.8488L51.8774 26.5377C52.1451 25.7137 51.8518 24.811 51.1508 24.3017L44.081 19.1652C42.5136 18.0264 43.3191 15.5471 45.2566 15.5471H53.9953C54.8618 15.5471 55.6297 14.9892 55.8975 14.1652L58.5979 5.8541Z" fill="#FF0413"/>
<path d="M96.5979 5.8541C97.1966 4.01148 99.8034 4.01148 100.402 5.8541L103.103 14.1652C103.37 14.9892 104.138 15.5471 105.005 15.5471H113.743C115.681 15.5471 116.486 18.0263 114.919 19.1652L107.849 24.3017C107.148 24.811 106.855 25.7137 107.123 26.5377L109.823 34.8488C110.422 36.6914 108.313 38.2236 106.745 37.0848L99.6756 31.9483C98.9746 31.439 98.0254 31.439 97.3244 31.9483L90.2546 37.0848C88.6872 38.2236 86.5782 36.6914 87.1769 34.8488L89.8774 26.5377C90.1451 25.7137 89.8518 24.811 89.1508 24.3017L82.081 19.1652C80.5136 18.0264 81.3191 15.5471 83.2566 15.5471H91.9953C92.8618 15.5471 93.6297 14.9892 93.8975 14.1652L96.5979 5.8541Z" fill="#FF0413"/>
<path d="M134.598 5.8541C135.197 4.01148 137.803 4.01148 138.402 5.8541L141.103 14.1652C141.37 14.9892 142.138 15.5471 143.005 15.5471H151.743C153.681 15.5471 154.486 18.0263 152.919 19.1652L145.849 24.3017C145.148 24.811 144.855 25.7137 145.123 26.5377L147.823 34.8488C148.422 36.6914 146.313 38.2236 144.745 37.0848L137.676 31.9483C136.975 31.439 136.025 31.439 135.324 31.9483L128.255 37.0848C126.687 38.2236 124.578 36.6914 125.177 34.8488L127.877 26.5377C128.145 25.7137 127.852 24.811 127.151 24.3017L120.081 19.1652C118.514 18.0264 119.319 15.5471 121.257 15.5471H129.995C130.862 15.5471 131.63 14.9892 131.897 14.1652L134.598 5.8541Z" fill="#FF0413"/>
<path d="M172.598 5.8541C173.197 4.01148 175.803 4.01148 176.402 5.8541L179.103 14.1652C179.37 14.9892 180.138 15.5471 181.005 15.5471H189.743C191.681 15.5471 192.486 18.0263 190.919 19.1652L183.849 24.3017C183.148 24.811 182.855 25.7137 183.123 26.5377L185.823 34.8488C186.422 36.6914 184.313 38.2236 182.745 37.0848L175.676 31.9483C174.975 31.439 174.025 31.439 173.324 31.9483L166.255 37.0848C164.687 38.2236 162.578 36.6914 163.177 34.8488L165.877 26.5377C166.145 25.7137 165.852 24.811 165.151 24.3017L158.081 19.1652C156.514 18.0264 157.319 15.5471 159.257 15.5471H167.995C168.862 15.5471 169.63 14.9892 169.897 14.1652L172.598 5.8541Z" fill="#FF0413"/>
</svg>
